<svg id="Web_Developer" data-name="Web Developer" xmlns="http://www.w3.org/2000/svg" width="208.966" height="146.662" viewBox="0 0 208.966 146.662">
  <path id="Path_384" data-name="Path 384" d="M894.148,732.021c-1.356,5.165-6.109,8.393-6.109,8.393s-2.554-5.147-1.2-10.312,6.109-8.393,6.109-8.393S895.5,726.856,894.148,732.021Z" transform="translate(-726.335 -595.614)" fill="#3f3d56"/>
  <path id="Path_385" data-name="Path 385" d="M897.993,752.133c-3.8,3.753-4.224,9.483-4.224,9.483s5.734-.356,9.533-4.109,4.224-9.483,4.224-9.483S901.792,748.38,897.993,752.133Z" transform="translate(-732.237 -616.819)" fill="#6c63ff"/>
  <path id="Path_386" data-name="Path 386" d="M180.2,639.991h7.154l17.631-6.9s12.52-5.11,11.5,4.6-2.811,22.741-2.811,22.741-5.621-2.555-8.687-1.789-1.022-15.586-1.022-15.586-25.04,12.009-27.34,10.476-2.811-12.265-2.811-12.265Z" transform="translate(-152.089 -523.123)" fill="#2f2e41"/>
  <path id="Path_387" data-name="Path 387" d="M180.2,639.991h7.154l17.631-6.9s12.52-5.11,11.5,4.6-2.811,22.741-2.811,22.741-5.621-2.555-8.687-1.789-1.022-15.586-1.022-15.586-25.04,12.009-27.34,10.476-2.811-12.265-2.811-12.265Z" transform="translate(-152.089 -523.123)" opacity="0.1"/>
  <path id="Path_388" data-name="Path 388" d="M238.119,558.82l8.658,12.44,20.186,16.864s18.653,4.344,16.1,7.41-18.142-3.066-18.142-3.066S241.667,575.6,240.9,574.327s-9.2-13.287-9.2-13.287Z" transform="translate(-198.74 -464.357)" fill="#a0616a"/>
  <path id="Path_389" data-name="Path 389" d="M238.119,558.82l8.658,12.44,20.186,16.864s18.653,4.344,16.1,7.41-18.142-3.066-18.142-3.066S241.667,575.6,240.9,574.327s-9.2-13.287-9.2-13.287Z" transform="translate(-198.74 -464.357)" opacity="0.1"/>
  <path id="Path_390" data-name="Path 390" d="M203.292,507.092l5.621,10.987s-1.278,5.366-3.322,5.877-10.732-6.643-10.732-6.643Z" transform="translate(-169.053 -422.675)" fill="#d0cde1"/>
  <path id="Path_391" data-name="Path 391" d="M203.292,507.092l5.621,10.987s-1.278,5.366-3.322,5.877-10.732-6.643-10.732-6.643Z" transform="translate(-169.053 -422.675)" opacity="0.1"/>
  <path id="Path_392" data-name="Path 392" d="M559.23,643.543l1.661,6.849a.428.428,0,0,1-.008.231l-7.532,23.539a.428.428,0,0,1-.833-.082l-1.042-9.17a.428.428,0,0,1,.018-.181l6.914-21.218a.428.428,0,0,1,.823.032Z" transform="translate(-456.413 -532.364)" fill="#2f2e41"/>
  <path id="Path_393" data-name="Path 393" d="M498.739,575.493l1.533,5.877-6.643,21.463L492.1,596.19Z" transform="translate(-396.533 -463.735)" fill="#f2f2f2"/>
  <path id="Path_394" data-name="Path 394" d="M415.739,763.578c.256.767,26.574-.255,26.829-.511a5.548,5.548,0,0,0,.562-1.022c.24-.511.46-1.022.46-1.022l-1.022-8.274-26.062-.925s-.652,7.011-.784,10.221A7.667,7.667,0,0,0,415.739,763.578Z" transform="translate(-347.005 -619.881)" fill="#2f2e41"/>
  <path id="Path_395" data-name="Path 395" d="M429.4,689.965l.511,7.154h-11.5v-7.154Z" transform="translate(-337.159 -555.977)" opacity="0.1"/>
  <path id="Path_396" data-name="Path 396" d="M371.11,701.75l.069-.014-.324,3.08h-6.388V701.75Z" transform="translate(-293.689 -565.462)" opacity="0.1"/>
  <path id="Path_397" data-name="Path 397" d="M415.739,805.988c.256.767,26.574-.255,26.829-.511a5.552,5.552,0,0,0,.562-1.022H415.721A7.667,7.667,0,0,0,415.739,805.988Z" transform="translate(-347.005 -662.291)" opacity="0.1"/>
  <circle id="Ellipse_77" data-name="Ellipse 77" cx="11.498" cy="11.498" r="11.498" transform="translate(26.574 57.844)" fill="#a0616a"/>
  <path id="Path_398" data-name="Path 398" d="M181.443,441s-3.833,6.643-4.6,10.221-11.5-7.154-11.5-7.154l-1.405-3.7s10.093-4.727,9.326-8.56S181.443,441,181.443,441Z" transform="translate(-144.137 -361.433)" fill="#a0616a"/>
  <path id="Path_399" data-name="Path 399" d="M213.7,584.722l10.476,13.8,25.04,18.653s18.142,3.833,14.053,6.643-15.842-2.555-15.842-2.555-25.3-13.542-30.662-19.164-15.331-15.075-15.331-15.075Z" transform="translate(-174.355 -485.229)" fill="#a0616a"/>
  <path id="Path_400" data-name="Path 400" d="M97.867,688.639l3.066,4.855,18.3-5.757a14.388,14.388,0,0,1,11.979,1.445c3.194,2.012,5.238,5.206.639,9.933-9.2,9.454-15.331,4.344-15.331,4.344s-30.917,14.564-36.028,7.41-5.366-10.732-5.366-10.732S94.8,687.872,97.867,688.639Z" transform="translate(-72.571 -567.683)" fill="#2f2e41"/>
  <path id="Path_401" data-name="Path 401" d="M278.267,772.545s8.176,5.366-1.533,7.921a25.725,25.725,0,0,1-16.864-1.022s-8.432,0-8.432-4.344,2.811-4.855,2.811-4.855l8.688,1.278S273.412,768.712,278.267,772.545Z" transform="translate(-214.644 -634.724)" fill="#d0cde1"/>
  <path id="Path_402" data-name="Path 402" d="M204.333,356.764a8.572,8.572,0,0,0,2.409.863,2.2,2.2,0,0,0,2.222-.952,2.989,2.989,0,0,0,.252-1.352,6.02,6.02,0,0,0-.96-4.006c-.566-.691-1.392-1.127-1.978-1.8a8.51,8.51,0,0,1-1-1.633c-1.139-2.139-2.826-4.2-5.17-4.812a11.21,11.21,0,0,0-3.018-.231l-5.9.083a10.277,10.277,0,0,0-2.84.306c-1.9.574-3.283,2.172-4.55,3.7a23.141,23.141,0,0,0-2.61,3.6,12.638,12.638,0,0,0-1.5,6.192,5.794,5.794,0,0,0,.212,1.638,9.093,9.093,0,0,0,.644,1.415c1.107,2.174,1.764,4.89.518,6.988a13.426,13.426,0,0,0,5.737-3.9,10.744,10.744,0,0,1,1.992-2.407,2,2,0,0,1,2.786.232,2.5,2.5,0,0,1,.282,1.17,5.361,5.361,0,0,0,.323,1.974,1.479,1.479,0,0,0,1.607.917c1.112-.313,1.006-2.021,1.863-2.8.651-.589,1.655-.476,2.491-.744a3.7,3.7,0,0,0,2.121-2.089c.317-.71.312-2.568.911-2.952C201.929,355.687,203.637,356.453,204.333,356.764Z" transform="translate(-156.829 -290.314)" fill="#2f2e41"/>
  <path id="Path_403" data-name="Path 403" d="M80.858,472.137a3.032,3.032,0,0,1,1.578,0c1.64.44,5.317,1.606,6.105,3.38,1.022,2.3,4.6,5.877,4.6,5.877s4.855,4.855,3.833,8.176-4.855,7.154-4.855,7.154,1.022,15.842-4.088,19.93-7.154,1.278-7.154,5.11S65.034,537.611,61.968,530.2c0,0,1.533-13.8,1.022-18.653C62.487,506.763,63.224,476.911,80.858,472.137Z" transform="translate(-61.968 -394.425)" fill="#d0cde1"/>
  <path id="Path_404" data-name="Path 404" d="M151.945,502.991s15.586,11.5,12.776,16.353c0,0-9.454,4.6-11.5,4.344s-9.965-9.2-12.009-9.965S138.147,499.159,151.945,502.991Z" transform="translate(-124.86 -418.829)" fill="#d0cde1"/>
  <circle id="Ellipse_78" data-name="Ellipse 78" cx="12.623" cy="12.623" r="12.623" transform="translate(84.099 33.49)" fill="#f2f2f2"/>
  <path id="Path_405" data-name="Path 405" d="M803.384,164.009H732.649v-14.8h70.735Zm-70.424-.312h70.112V149.519H732.961Z" transform="translate(-602.406 -134.289)" fill="#3f3d56"/>
  <rect id="Rectangle_333" data-name="Rectangle 333" width="70.424" height="14.49" transform="translate(125.413 17.879)" fill="#6c63ff"/>
  <circle id="Ellipse_79" data-name="Ellipse 79" cx="1.091" cy="1.091" r="1.091" transform="translate(79.804 1.87)" fill="#6c63ff"/>
  <circle id="Ellipse_80" data-name="Ellipse 80" cx="1.091" cy="1.091" r="1.091" transform="translate(83.543 1.87)" fill="#6c63ff"/>
  <circle id="Ellipse_81" data-name="Ellipse 81" cx="1.091" cy="1.091" r="1.091" transform="translate(87.283 1.87)" fill="#6c63ff"/>
  <path id="Path_406" data-name="Path 406" d="M593.674,157.767H462.487V72.386H593.674ZM462.8,157.455H593.363V72.7H462.8Z" transform="translate(-384.708 -72.386)" fill="#3f3d56"/>
  <rect id="Rectangle_334" data-name="Rectangle 334" width="130.876" height="0.312" transform="translate(77.935 4.726)" fill="#3f3d56"/>
  <path id="Path_407" data-name="Path 407" d="M474.966,81.3a1.246,1.246,0,1,1,1.246-1.246A1.246,1.246,0,0,1,474.966,81.3Zm0-2.181a.935.935,0,1,0,.935.935A.935.935,0,0,0,474.966,79.116Z" transform="translate(-393.759 -77.558)" fill="#3f3d56"/>
  <path id="Path_408" data-name="Path 408" d="M494.221,81.3a1.246,1.246,0,1,1,1.246-1.246,1.246,1.246,0,0,1-1.246,1.246Zm0-2.181a.935.935,0,1,0,.935.935.935.935,0,0,0-.935-.935Z" transform="translate(-409.275 -77.558)" fill="#3f3d56"/>
  <path id="Path_409" data-name="Path 409" d="M513.477,81.3a1.246,1.246,0,1,1,1.246-1.246A1.246,1.246,0,0,1,513.477,81.3Zm0-2.181a.935.935,0,1,0,.935.935.935.935,0,0,0-.935-.935Z" transform="translate(-424.792 -77.558)" fill="#3f3d56"/>
  <rect id="Rectangle_335" data-name="Rectangle 335" width="0.312" height="80.464" transform="translate(118.869 4.882)" fill="#3f3d56"/>
  <rect id="Rectangle_336" data-name="Rectangle 336" width="22.903" height="3.116" transform="translate(133.748 44.443)" fill="#f2f2f2"/>
  <rect id="Rectangle_337" data-name="Rectangle 337" width="22.903" height="3.116" transform="translate(169.739 44.443)" fill="#f2f2f2"/>
  <path id="Path_410" data-name="Path 410" d="M779.532,295.847H756.317V292.42h23.215Zm-22.9-.312H779.22v-2.8H756.629Z" transform="translate(-621.478 -249.69)" fill="#3f3d56"/>
  <rect id="Rectangle_338" data-name="Rectangle 338" width="22.903" height="3.116" transform="translate(133.748 68.593)" fill="#f2f2f2"/>
  <path id="Path_411" data-name="Path 411" d="M779.532,420.205H756.317v-3.428h23.215Zm-22.9-.312H779.22v-2.8H756.629Z" transform="translate(-621.478 -349.898)" fill="#3f3d56"/>
  <rect id="Rectangle_339" data-name="Rectangle 339" width="58.894" height="3.116" transform="translate(133.826 56.206)" fill="#f2f2f2"/>
  <path id="Path_412" data-name="Path 412" d="M815.924,358.026H756.718V354.6h59.206Zm-58.894-.312h58.583v-2.8H757.03Z" transform="translate(-621.801 -299.794)" fill="#3f3d56"/>
  <path id="Path_413" data-name="Path 413" d="M964.866,295.847H941.651V292.42h23.215Zm-22.9-.312h22.592v-2.8H941.962Z" transform="translate(-770.821 -249.69)" fill="#3f3d56"/>
  <path id="Path_414" data-name="Path 414" d="M517.849,251.478a12.817,12.817,0,1,1,12.817-12.817A12.817,12.817,0,0,1,517.849,251.478Zm0-25.245a12.428,12.428,0,1,0,12.428,12.428A12.429,12.429,0,0,0,517.849,226.232Z" transform="translate(-418.991 -196.043)" fill="#3f3d56"/>
  <rect id="Rectangle_340" data-name="Rectangle 340" width="54.957" height="0.388" transform="translate(145.27 144.57)" fill="#3f3d56"/>
</svg>
