<svg id="Data_Report" data-name="Data Report" xmlns="http://www.w3.org/2000/svg" width="315.164" height="206.371" viewBox="0 0 315.164 206.371">
  <ellipse id="Ellipse_82" data-name="Ellipse 82" cx="45.16" cy="3.444" rx="45.16" ry="3.444" transform="translate(0 199.482)" fill="#e6e6e6"/>
  <path id="Path_415" data-name="Path 415" d="M315.409,287.226l-18.017-4.914q7.216-6.81,6.279-12.83h11.738Z" transform="translate(-255.622 -235.383)" fill="#9f616a"/>
  <path id="Path_416" data-name="Path 416" d="M112.779,366.49l-5.82.819-7.011-64.422-11.192,64.15-6.006.273V285.961h37.125Z" transform="translate(-51.081 -176.52)" fill="#2f2e41"/>
  <path id="Path_417" data-name="Path 417" d="M272.485,686.156h0a4.093,4.093,0,0,0,4.059-2.991l.425-6.343-.857-4.5c-2.261-1.858-4.547-1.819-6.855,0l-.736,9.423a4.093,4.093,0,0,0,3.964,4.41Z" transform="translate(-237.793 -483.2)" fill="#2f2e41"/>
  <path id="Path_418" data-name="Path 418" d="M335.253,686.156h0a4.093,4.093,0,0,0,4.059-2.991l.425-6.343-.857-4.5c-2.261-1.858-4.547-1.819-6.855,0l-.736,9.423a4.093,4.093,0,0,0,3.964,4.41Z" transform="translate(-276.538 -483.2)" fill="#2f2e41"/>
  <circle id="Ellipse_83" data-name="Ellipse 83" cx="10.373" cy="10.373" r="10.373" transform="translate(46.957 21.815)" fill="#9f616a"/>
  <path id="Path_419" data-name="Path 419" d="M308.443,361.159H268.861c5.13-23.776,5.116-42.924,1.029-58.411a4.138,4.138,0,0,1,2.517-4.919l10.649-4.1c3.2,4.129,7.708,5.932,14.741,3.276l5.58,1.145a5.734,5.734,0,0,1,4.576,6c-.411,6.057-.249,12.16-.6,17.428C306.257,337.891,305.784,350.61,308.443,361.159Z" transform="translate(-238.01 -250.353)" fill="#e6e6e6"/>
  <path id="Path_420" data-name="Path 420" d="M313.054,223.8s6.005-6.824,13.1-.273l1.911.546-1.365,1.092s7.1,3.276,6.551,10.1a3.129,3.129,0,0,0-1.638,0c-.546.273-.819,3.276-.819,3.276a17.236,17.236,0,0,0-1.092-2.457c-.273-.273-4.095,3-10.373-1.911,0,0-1.911,4.914-4.095,4.368s-5.187-.273-6.551,3.276C308.687,241.817,301.316,225.984,313.054,223.8Z" transform="translate(-261.184 -205.261)" fill="#2f2e41"/>
  <path id="Path_421" data-name="Path 421" d="M370.153,391.7l-3.5,4.7a4.6,4.6,0,0,0,.993,6.483h0a4.6,4.6,0,0,0,7.241-3l1-6.266,1.911-27.025-1.365-13.649L367.7,356.21l2.457,11.738Z" transform="translate(-297.809 -286.897)" fill="#9f616a"/>
  <path id="Path_422" data-name="Path 422" d="M362.722,329.986l10.646-4.914-.546-3.868a15.878,15.878,0,0,0-10.138-14.8l-3.238-1.256Z" transform="translate(-293.927 -257.398)" fill="#e6e6e6"/>
  <path id="Path_423" data-name="Path 423" d="M254.393,388.844l3.5,4.7a4.6,4.6,0,0,1-.993,6.483h0a4.6,4.6,0,0,1-7.241-3l-1-6.265L246.75,363.73l1.365-13.649,8.735,3.276L254.393,365.1Z" transform="translate(-224.361 -285.136)" fill="#9f616a"/>
  <path id="Path_424" data-name="Path 424" d="M258.823,327.133l-10.646-4.914.546-3.868a15.878,15.878,0,0,1,10.138-14.8l3.238-1.256Z" transform="translate(-225.242 -255.636)" fill="#e6e6e6"/>
  <path id="Path_425" data-name="Path 425" d="M705.792,503.078H523.62a2.873,2.873,0,0,1-2.87-2.87V420.987a2.874,2.874,0,0,1,2.87-2.87H705.792a2.873,2.873,0,0,1,2.87,2.87v79.222a2.873,2.873,0,0,1-2.87,2.87ZM523.62,419.264a1.724,1.724,0,0,0-1.722,1.722v79.222a1.724,1.724,0,0,0,1.722,1.722H705.792a1.724,1.724,0,0,0,1.722-1.722V420.987a1.724,1.724,0,0,0-1.722-1.722Z" transform="translate(-393.498 -327.133)" fill="#e6e6e6"/>
  <path id="Path_426" data-name="Path 426" d="M544.972,443.616a1.722,1.722,0,1,0,0,3.444h24.111a1.722,1.722,0,0,0,0-3.444Z" transform="translate(-407.387 -342.874)" fill="#e6e6e6"/>
  <path id="Path_427" data-name="Path 427" d="M716.8,473.8V505.74H554.21V488.925c1.126-.723,2.259-1.443,3.4-2.138,4.881-2.987,10.106-5.781,15.8-6.816a23.853,23.853,0,0,1,8.157-.1,46.554,46.554,0,0,1,8.3,2.444,56.675,56.675,0,0,0,8.14,2.553,23.832,23.832,0,0,0,8.255.163c5.228-.784,10.14-2.885,15.031-4.786,4.922-1.911,9.993-3.717,15.32-3.954,5.259-.238,10.453,1,15.442,2.546,10.174,3.14,20.562,7.8,31.334,4.6,10.939-3.238,21-12.586,33.123-9.813a.456.456,0,0,1,.286.18Z" transform="translate(-414.152 -361.083)" fill="#e6e6e6"/>
  <path id="Path_428" data-name="Path 428" d="M716.609,474.36a.491.491,0,0,1-.557.244,18.126,18.126,0,0,0-4.406-.455c-11.924.21-21.092,9.81-32.752,11.245-10.512,1.293-20.407-3.819-30.291-6.49a35.873,35.873,0,0,0-15.716-1.181c-5.244.933-10.166,3.079-15.108,4.983-4.759,1.833-9.7,3.537-14.857,3.622-5.665.1-10.767-2.24-16.021-4.019a28.528,28.528,0,0,0-8.431-1.731,25.506,25.506,0,0,0-8.309,1.286c-5.584,1.775-10.614,4.939-15.512,8.082a.435.435,0,0,1-.289.078.526.526,0,0,1-.224-.957l.224-.143c1.124-.723,2.254-1.443,3.394-2.138,4.871-2.987,10.085-5.781,15.767-6.816a23.753,23.753,0,0,1,8.14-.1,46.385,46.385,0,0,1,8.282,2.444,56.471,56.471,0,0,0,8.123,2.553,23.732,23.732,0,0,0,8.238.163c5.217-.784,10.119-2.885,15-4.786,4.912-1.911,9.973-3.717,15.288-3.954,5.248-.238,10.431,1,15.41,2.546,10.152,3.14,20.519,7.8,31.269,4.6,10.916-3.238,20.957-12.586,33.054-9.813a.455.455,0,0,1,.285.18A.523.523,0,0,1,716.609,474.36Z" transform="translate(-413.964 -361.083)" fill="#6c63ff"/>
  <circle id="Ellipse_84" data-name="Ellipse 84" cx="2.376" cy="2.376" r="2.376" transform="translate(160.084 116.823)" fill="#6c63ff"/>
  <circle id="Ellipse_85" data-name="Ellipse 85" cx="2.376" cy="2.376" r="2.376" transform="translate(220.163 113.768)" fill="#6c63ff"/>
  <circle id="Ellipse_86" data-name="Ellipse 86" cx="2.376" cy="2.376" r="2.376" transform="translate(293.481 110.713)" fill="#6c63ff"/>
  <path id="Path_429" data-name="Path 429" d="M606.472,593.616a1.722,1.722,0,1,0,0,3.444h24.111a1.722,1.722,0,1,0,0-3.444Z" transform="translate(-445.35 -435.467)" fill="#e6e6e6"/>
  <circle id="Ellipse_87" data-name="Ellipse 87" cx="6.506" cy="6.506" r="6.506" transform="translate(139.116 153.174)" fill="#6c63ff"/>
  <path id="Path_430" data-name="Path 430" d="M758.472,593.616a1.722,1.722,0,1,0,0,3.444h24.111a1.722,1.722,0,0,0,0-3.444Z" transform="translate(-539.178 -435.467)" fill="#e6e6e6"/>
  <circle id="Ellipse_88" data-name="Ellipse 88" cx="6.506" cy="6.506" r="6.506" transform="translate(197.288 153.174)" fill="#6c63ff"/>
  <path id="Path_431" data-name="Path 431" d="M910.472,593.616a1.722,1.722,0,1,0,0,3.444h24.111a1.722,1.722,0,1,0,0-3.444Z" transform="translate(-633.005 -435.467)" fill="#e6e6e6"/>
  <circle id="Ellipse_89" data-name="Ellipse 89" cx="6.506" cy="6.506" r="6.506" transform="translate(255.461 153.174)" fill="#6c63ff"/>
  <path id="Path_78" data-name="Path 78" d="M821.587,323.434H731.712c-1.752,0-3.172-1.012-3.174-2.258V301.642c0-1.247,1.422-2.258,3.174-2.258h89.875c1.752,0,3.172,1.011,3.174,2.258v19.534C824.76,322.422,823.339,323.433,821.587,323.434Zm-89.875-23.148c-1.051,0-1.9.607-1.9,1.355v19.534c0,.748.853,1.354,1.9,1.355h89.875c1.051,0,1.9-.607,1.9-1.355V301.642c0-.748-.853-1.354-1.9-1.355Z" transform="translate(-521.763 -253.841)" fill="#e6e6e6"/>
  <path id="Path_432" data-name="Path 432" d="M786.843,328.391a1.916,1.916,0,0,0-1.914,1.914V343.7a1.916,1.916,0,0,0,1.914,1.914h68.506a1.916,1.916,0,0,0,1.914-1.914V330.3a1.916,1.916,0,0,0-1.914-1.914Z" transform="translate(-556.572 -271.747)" fill="#6c63ff"/>
  <circle id="Ellipse_90" data-name="Ellipse 90" cx="4.21" cy="4.21" r="4.21" transform="translate(235.628 61.237)" fill="#fff"/>
  <path id="Path_433" data-name="Path 433" d="M862.283,346.616a1.722,1.722,0,0,0,0,3.444h24.111a1.722,1.722,0,0,0,0-3.444Z" transform="translate(-603.259 -282.997)" fill="#fff"/>
  <path id="Path_78-2" data-name="Path 78" d="M645.587,204.434H555.712c-1.752,0-3.172-1.012-3.174-2.258V182.642c0-1.247,1.422-2.258,3.174-2.258h89.875c1.752,0,3.172,1.012,3.174,2.258v19.534C648.76,203.422,647.339,204.433,645.587,204.434Zm-89.875-23.148c-1.051,0-1.9.607-1.9,1.355v19.534c0,.748.853,1.354,1.9,1.355h89.875c1.051,0,1.9-.607,1.9-1.355V182.642c0-.748-.853-1.354-1.9-1.355Z" transform="translate(-413.12 -180.384)" fill="#e6e6e6"/>
  <path id="Path_434" data-name="Path 434" d="M610.843,209.391a1.916,1.916,0,0,0-1.914,1.914V224.7a1.916,1.916,0,0,0,1.914,1.914h68.506a1.916,1.916,0,0,0,1.914-1.914V211.3a1.916,1.916,0,0,0-1.914-1.914Z" transform="translate(-447.93 -198.289)" fill="#6c63ff"/>
  <circle id="Ellipse_91" data-name="Ellipse 91" cx="4.21" cy="4.21" r="4.21" transform="translate(168.271 15.694)" fill="#fff"/>
  <path id="Path_435" data-name="Path 435" d="M686.283,227.616a1.722,1.722,0,1,0,0,3.444h24.111a1.722,1.722,0,0,0,0-3.444Z" transform="translate(-494.616 -209.54)" fill="#fff"/>
</svg>
