<svg id="Forming_Idea" data-name="Forming Idea" xmlns="http://www.w3.org/2000/svg" width="734.355" height="532.838" viewBox="0 0 734.355 532.838">
  <path id="Path_436" data-name="Path 436" d="M323.5,272.691A71.32,71.32,0,0,1,218.647,270.4L59.514,421.03,283.286,657.438l213.3-201.9Z" transform="translate(-59.514 -125.993)" fill="#f2f2f2"/>
  <path id="Path_437" data-name="Path 437" d="M350.2,252.861a62.252,62.252,0,0,0,44.968-19.126L350.79,186.855l-47.41,44.876A62.283,62.283,0,0,0,350.2,252.861Z" transform="translate(-137.711 -99.203)" fill="#f2f2f2"/>
  <path id="Path_438" data-name="Path 438" d="M780.664,332.027A111.979,111.979,0,0,1,668.572,444.12q-.958,0-1.916-.02c-2.69-.041-5.346-.177-7.989-.408a112.1,112.1,0,1,1,122-111.664Z" transform="translate(-218.863 -109.81)" fill="#6c63ff"/>
  <path id="Path_439" data-name="Path 439" d="M734.336,291.462a111.464,111.464,0,0,0,13.511-40.135,112.092,112.092,0,0,0-188.87,65.618A111.669,111.669,0,0,0,626.864,347.9c2.643.231,5.3.367,7.989.408q.958.02,1.916.02a111.927,111.927,0,0,0,97.568-56.868Z" transform="translate(-219.668 -109.809)" opacity="0.1"/>
  <rect id="Rectangle_341" data-name="Rectangle 341" width="180.027" height="201.087" transform="translate(319.274 331.592)" fill="#2f2e41"/>
  <path id="Path_440" data-name="Path 440" d="M775.692,419.671a112.224,112.224,0,0,1-78.539,65.489h24.959V686.247H556.066l93.186-161.406L670.6,487.857l1.556-2.7,70.672-122.4Z" transform="translate(-218.735 -155.606)" opacity="0.1"/>
  <path id="Path_441" data-name="Path 441" d="M717.132,306.924l93.58,162.085,93.58,162.086H529.972l93.58-162.086Z" transform="translate(-169.937 -98.416)" fill="#3f3d56"/>
  <rect id="Rectangle_342" data-name="Rectangle 342" width="709.239" height="1.359" transform="translate(25.117 531.32)" fill="#2f2e41"/>
  <path id="Path_442" data-name="Path 442" d="M160.58,733.714l-1.24,10.333-7.026,3.306-7.853-2.48-5.373,2.48-1.653-9.506,9.506-10.747Z" transform="translate(-44.069 -233.147)" fill="#9f616a"/>
  <path id="Path_443" data-name="Path 443" d="M209.628,803.056s6.408-7.47,6.51-3.735,14.155,16.548,14.155,16.548,21.906,6.613,4.96,10.746-54.144-7.853-55.384-10.333,10.333-21.492,11.573-19.839S198.882,803.883,209.628,803.056Z" transform="translate(-98.077 -294.637)" fill="#2f2e41"/>
  <path id="Path_444" data-name="Path 444" d="M232.26,625.531s2.48,19.426,0,22.319-1.24,8.68,0,9.506-1.653,4.133-3.72,5.786-4.96,9.093-4.96,9.093-11.159,29.345-11.159,32.238-4.96,9.093-4.546,11.159-2.893,8.68-2.48,9.92-5.373,12.4-3.72,14.053,24.385,7.44,23.146,3.72-2.067-8.266-1.24-8.266,4.546-4.546,3.72-6.2,24.8-45.051,24.8-45.051Z" transform="translate(-105.003 -239.866)" fill="#2f2e41"/>
  <path id="Path_445" data-name="Path 445" d="M209.628,803.056s6.408-7.47,6.51-3.735,14.155,16.548,14.155,16.548,21.906,6.613,4.96,10.746-54.144-7.853-55.384-10.333,10.333-21.492,11.573-19.839S198.882,803.883,209.628,803.056Z" transform="translate(-98.077 -294.637)" opacity="0.1"/>
  <path id="Path_446" data-name="Path 446" d="M232.26,625.531s2.48,19.426,0,22.319-1.24,8.68,0,9.506-1.653,4.133-3.72,5.786-4.96,9.093-4.96,9.093-11.159,29.345-11.159,32.238-4.96,9.093-4.546,11.159-2.893,8.68-2.48,9.92-5.373,12.4-3.72,14.053,24.385,7.44,23.146,3.72-2.067-8.266-1.24-8.266,4.546-4.546,3.72-6.2,24.8-45.051,24.8-45.051Z" transform="translate(-105.003 -239.866)" opacity="0.1"/>
  <path id="Path_447" data-name="Path 447" d="M240.8,729.282l4.546,11.573-2.067,16.119-13.226-.826-7.44-6.614V735.482Z" transform="translate(-71.381 -233.846)" fill="#9f616a"/>
  <path id="Path_448" data-name="Path 448" d="M295,802.384s4.546-14.879,7.026-10.746a65.4,65.4,0,0,1,4.133,8.266s20.252,13.226,25.625,13.226,10.333,6.613,3.306,9.093-60.757,5.786-61.584,0,.827-24.385,3.306-22.319S292.1,806.517,295,802.384Z" transform="translate(-128.062 -292.896)" fill="#2f2e41"/>
  <path id="Path_449" data-name="Path 449" d="M315.771,538.278s18.217,12.38,19.044,14.033,11.4,6.736,2.717,10.87-31.681-22.01-31.681-22.01Z" transform="translate(-138.503 -211.888)" fill="#9f616a"/>
  <path id="Path_450" data-name="Path 450" d="M304.142,502.991s13.226,25.625,10.746,26.452-12.4,5.786-12.4,5.786l-4.546-26.039Z" transform="translate(-135.967 -200.573)" fill="#575a88"/>
  <path id="Path_451" data-name="Path 451" d="M304.142,502.991s13.226,25.625,10.746,26.452-12.4,5.786-12.4,5.786l-4.546-26.039Z" transform="translate(-135.967 -200.573)" opacity="0.1"/>
  <path id="Path_452" data-name="Path 452" d="M278.528,534.534s2.893,21.492,1.653,26.039.827,72.743-.827,76.463-2.893,27.692-2.893,30.585,3.307,26.452,4.133,28.519,3.307,9.093,2.067,12.4-18.186,11.573-20.666,8.68-.413-11.986-2.48-12.4-4.546-19.839-4.546-19.839L241.33,608.93s-25.625-63.65-19.839-69.85S278.528,534.534,278.528,534.534Z" transform="translate(-111.18 -210.623)" fill="#2f2e41"/>
  <circle id="Ellipse_92" data-name="Ellipse 92" cx="20.252" cy="20.252" r="20.252" transform="translate(131.804 136.68)" fill="#9f616a"/>
  <path id="Path_453" data-name="Path 453" d="M282.372,307.4s-6.613,17.359-5.786,21.079-19.426-6.613-19.426-6.613,1.24-20.252,0-25.625S282.372,307.4,282.372,307.4Z" transform="translate(-122.876 -133.933)" fill="#9f616a"/>
  <path id="Path_454" data-name="Path 454" d="M212.12,429.184c.091,3.468.149,5.534.149,5.534s-1.24,19.012.827,25.212,2.067,10.746,3.306,14.879c.364,1.2,5.311,1.847,12.259,2.133,6.373.26,14.429.223,22.162.045,12.8-.3,24.741-.984,26.75-1.352,4.546-.827-.827-7.853.827-11.573s-2.893-51.251-2.893-51.251.413-26.865-1.653-37.2-9.919-26.865-11.573-28.932-.413-3.306,3.307-5.786,0-11.986,0-11.986c-7.026-5.786-24.8-6.613-24.8-6.613s-27.279,28.105-28.932,33.892c-1,3.5-.641,31.428-.2,52.995C211.822,417.3,212,424.514,212.12,429.184Z" transform="translate(-108.157 -142.633)" fill="#575a88"/>
  <path id="Path_455" data-name="Path 455" d="M256.654,555.314s15.706,32.238,3.307,34.3-18.6-29.345-18.6-29.345Z" transform="translate(-117.824 -217.35)" fill="#9f616a"/>
  <path id="Path_456" data-name="Path 456" d="M288.685,266.1c.716-3.474-1.938-6.72-4.734-8.9a34.6,34.6,0,0,0-21.285-7.258c-5.42.029-11.014,1.463-15.111,5.012-4.778,4.14-6.958,10.778-6.557,17.088s3.145,12.294,6.846,17.419c1.776,2.46,4.629,5.006,7.468,3.934a6.942,6.942,0,0,0,2.762-2.333,42.844,42.844,0,0,0,4.735-7.277,28.983,28.983,0,0,1,3.336-5.745,6.777,6.777,0,0,1,5.8-2.658c1.817.251,3.6,1.53,5.332.929,1.928-.668,2.394-3.134,2.547-5.168.168-2.23.049-4.813.668-6.922C281.173,264.577,288.352,267.761,288.685,266.1Z" transform="translate(-117.692 -119.43)" fill="#2f2e41"/>
  <path id="Path_457" data-name="Path 457" d="M211.539,444.145c4.629,16.694,15.247,44.828,15.855,46.039.153.31.393.918.686,1.719,6.373.26,14.429.223,22.162.045-1.2-3.133-2.6-6.158-2.6-7.138,0-2.067-9.919-55.384-9.919-55.384s7.853-23.559,14.879-43.4-20.872-15.913-20.872-15.913c-14.879-3.72-17.566,2.687-17.566,2.687s-1.31,34.842-3.1,51.342c-.459,4.228-.946,7.25-1.451,8.175C208.96,433.532,209.853,438.086,211.539,444.145Z" transform="translate(-107.576 -157.594)" opacity="0.1"/>
  <path id="Path_458" data-name="Path 458" d="M236.361,350.655s19.012,7.853,11.986,27.692-14.879,43.4-14.879,43.4,9.92,53.317,9.92,55.384,6.2,13.226,3.72,15.293-19.012,6.2-19.426,4.133a139.793,139.793,0,0,0-4.546-14.053c-.827-1.653-20.252-53.317-17.772-57.864,1.825-3.346,3.426-34,4.144-49.955a26.237,26.237,0,0,1,13.678-22.089A18.214,18.214,0,0,1,236.361,350.655Z" transform="translate(-106.211 -151.565)" fill="#575a88"/>
  <rect id="Rectangle_343" data-name="Rectangle 343" width="24.456" height="24.456" transform="translate(182.046 320.043)" fill="#6c63ff"/>
  <circle id="Ellipse_93" data-name="Ellipse 93" cx="7.473" cy="7.473" r="7.473" transform="translate(186.802 305.098)" fill="#3f3d56"/>
  <circle id="Ellipse_94" data-name="Ellipse 94" cx="36.899" cy="36.899" r="36.899" transform="translate(446.198 1.155)" fill="#ff6584"/>
  <path id="Path_459" data-name="Path 459" d="M735.59,121.088c0,27.84-16.551,37.561-36.967,37.561s-36.966-9.721-36.966-37.561,36.966-63.257,36.966-63.257S735.59,93.248,735.59,121.088Z" transform="translate(-252.593 -57.831)" fill="#f2f2f2"/>
  <path id="Path_460" data-name="Path 460" d="M647.562,96.559l.378-23.3L663.7,44.435,648,69.6l.17-10.476L659.03,38.274,648.216,56.356h0l.306-18.842,11.628-16.6L648.57,34.55,648.761,0l-1.2,45.738.1-1.887-11.823-18.1,11.633,21.718-1.1,21.044-.033-.559L632.705,48.915l13.588,21.017-.138,2.632-.024.039.012.216-2.795,53.39h3.734l.448-27.577,13.554-20.965Z" transform="translate(-202.879)" fill="#3f3d56"/>
  <path id="Path_461" data-name="Path 461" d="M867.154,178.348c-8.833,26.4-27.613,30.369-46.974,23.891s-31.972-20.947-23.139-47.349,55.127-48.26,55.127-48.26S875.987,151.947,867.154,178.348Z" transform="translate(-295.083 -73.479)" fill="#f2f2f2"/>
  <path id="Path_462" data-name="Path 462" d="M766.726,139.92l7.751-21.976,24.088-22.337L775.693,114.5l3.486-9.881,16.914-16.332L780.1,102h0l6.269-17.772,16.295-12.056-15.309,9.261L798.5,48.73,782.847,91.724l.692-1.758-5.47-20.912,4.141,24.287-7.721,19.607.147-.54-6.883-22.384,6.217,24.242L773,116.718l-.036.03-.058.209L753.32,166.7l3.541,1.185,9.175-26.01,19.506-15.581Z" transform="translate(-241.554 -15.625)" fill="#3f3d56"/>
  <path id="Path_463" data-name="Path 463" d="M597.7,159.343c10.012,25.977-1.935,41-20.985,48.342s-37.989,4.224-48-21.753,11.743-72.319,11.743-72.319S587.687,133.366,597.7,159.343Z" transform="translate(-209.119 -75.718)" fill="#f2f2f2"/>
  <path id="Path_464" data-name="Path 464" d="M519.813,146.39l-8.026-21.877,4.336-32.562-5.595,29.131-3.609-9.837,2.632-23.365-3.587,20.762h0L499.473,90.95l4.879-19.674-5.9,16.892L486.205,55.86l15.327,43.111-.586-1.8L483.407,84.541l18.665,16.082,6.54,20.032-.231-.51-19.566-12.868L509.052,122l.818,2.505-.009.046.088.2,16.593,50.823,3.484-1.342-9.5-25.893,5.108-24.437Z" transform="translate(-155.006 -17.912)" fill="#3f3d56"/>
  <path id="Path_465" data-name="Path 465" d="M510.811,500.481c-2.291,3.654-5.263,3.568-7.942,1.888s-4.052-4.317-1.761-7.971,10.056-5.261,10.056-5.261S513.1,496.827,510.811,500.481Z" transform="translate(-200.74 -196.131)" fill="#6c63ff"/>
  <path id="Path_466" data-name="Path 466" d="M912.678,340.306c.424,4.292-1.979,6.042-5.126,6.353s-5.846-.936-6.27-5.227,4.735-10.314,4.735-10.314S912.254,336.014,912.678,340.306Z" transform="translate(-329.421 -145.461)" fill="#6c63ff"/>
  <path id="Path_467" data-name="Path 467" d="M492.875,385.934c-2.291,3.654-5.263,3.568-7.942,1.888s-4.052-4.317-1.761-7.971,10.056-5.261,10.056-5.261S495.166,382.281,492.875,385.934Z" transform="translate(-194.989 -159.401)" fill="#6c63ff"/>
</svg>
