<svg id="Group_94" data-name="Group 94" xmlns="http://www.w3.org/2000/svg" width="232.456" height="169.285" viewBox="0 0 232.456 169.285">
  <path id="Path_357" data-name="Path 357" d="M882.8,450.307a100.713,100.713,0,0,1-4.7,27.84c-.065.209-.134.415-.2.624H860.336c.019-.187.037-.4.056-.624,1.171-13.458,7.92-95.369-.15-109.376C860.948,369.907,884.162,407.544,882.8,450.307Z" transform="translate(-662.771 -309.487)" fill="#e6e6e6"/>
  <path id="Path_358" data-name="Path 358" d="M898.259,588.232c-.147.209-.3.418-.456.624H884.633c.1-.178.215-.387.35-.624,2.176-3.927,8.616-15.668,14.595-27.84C906,547.311,911.9,533.735,911.4,528.821,911.552,529.929,916,563.714,898.259,588.232Z" transform="translate(-679.547 -419.572)" fill="#e6e6e6"/>
  <path id="Path_359" data-name="Path 359" d="M282.982,587.723a49.447,49.447,0,0,0,2.31,13.669c.032.1.066.2.1.307h8.62c-.009-.092-.018-.195-.028-.307-.575-6.608-3.889-46.824.074-53.7C293.712,548.249,282.314,566.728,282.982,587.723Z" transform="translate(-265.702 -432.551)" fill="#e6e6e6"/>
  <path id="Path_360" data-name="Path 360" d="M270.249,655.441c.072.1.147.205.224.306h6.467c-.049-.087-.106-.19-.172-.306-1.068-1.928-4.23-7.693-7.166-13.669-3.154-6.422-6.048-13.088-5.8-15.5C263.723,626.816,261.54,643.4,270.249,655.441Z" transform="translate(-252.323 -486.6)" fill="#e6e6e6"/>
  <path id="Path_361" data-name="Path 361" d="M609.332,664.525H519.34a1.669,1.669,0,0,1-1.667-1.667V640.536a1.668,1.668,0,0,1,1.667-1.667h89.992A1.668,1.668,0,0,1,611,640.536v22.323a1.668,1.668,0,0,1-1.667,1.666Zm-89.992-24.99a1,1,0,0,0-1,1v22.323a1,1,0,0,0,1,1h89.992a1,1,0,0,0,1-1V640.536a1,1,0,0,0-1-1Z" transform="translate(-427.146 -495.265)" fill="#e6e6e6"/>
  <circle id="Ellipse_73" data-name="Ellipse 73" cx="6.789" cy="6.789" r="6.789" transform="translate(99.388 148.787)" fill="#e6e6e6"/>
  <path id="Path_362" data-name="Path 362" d="M615.531,662.72a1.131,1.131,0,0,0,0,2.263H668.87a1.131,1.131,0,0,0,0-2.263Z" transform="translate(-493.677 -511.67)" fill="#e6e6e6"/>
  <path id="Path_363" data-name="Path 363" d="M615.531,684.466a1.131,1.131,0,1,0,0,2.263h22.952a1.131,1.131,0,1,0,0-2.263Z" transform="translate(-493.676 -526.627)" fill="#e6e6e6"/>
  <path id="Path_364" data-name="Path 364" d="M681.332,558.525H591.34a1.669,1.669,0,0,1-1.667-1.667V534.536a1.669,1.669,0,0,1,1.667-1.667h89.992A1.669,1.669,0,0,1,683,534.536v22.323A1.669,1.669,0,0,1,681.332,558.525Zm-89.992-24.99a1,1,0,0,0-1,1v22.323a1,1,0,0,0,1,1h89.992a1,1,0,0,0,1-1V534.536a1,1,0,0,0-1-1Z" transform="translate(-476.669 -422.357)" fill="#e6e6e6"/>
  <circle id="Ellipse_74" data-name="Ellipse 74" cx="6.789" cy="6.789" r="6.789" transform="translate(121.865 115.696)" fill="#e6e6e6"/>
  <path id="Path_365" data-name="Path 365" d="M687.531,556.72a1.131,1.131,0,0,0,0,2.263H740.87a1.131,1.131,0,0,0,0-2.263Z" transform="translate(-543.199 -438.762)" fill="#e6e6e6"/>
  <path id="Path_366" data-name="Path 366" d="M687.531,578.466a1.131,1.131,0,0,0,0,2.263h22.952a1.131,1.131,0,0,0,0-2.263Z" transform="translate(-543.199 -453.719)" fill="#e6e6e6"/>
  <path id="Path_367" data-name="Path 367" d="M625.332,259.157H535.34a1.668,1.668,0,0,1-1.667-1.667V180.536a1.668,1.668,0,0,1,1.667-1.667h89.992A1.669,1.669,0,0,1,627,180.536v76.955A1.669,1.669,0,0,1,625.332,259.157ZM535.34,179.536a1,1,0,0,0-1,1v76.955a1,1,0,0,0,1,1h89.992a1,1,0,0,0,1-1V180.536a1,1,0,0,0-1-1Z" transform="translate(-438.152 -178.869)" fill="#e6e6e6"/>
  <circle id="Ellipse_75" data-name="Ellipse 75" cx="6.789" cy="6.789" r="6.789" transform="translate(104.383 59.815)" fill="#e6e6e6"/>
  <path id="Path_368" data-name="Path 368" d="M631.531,377.72a1.131,1.131,0,1,0,0,2.263H684.87a1.131,1.131,0,1,0,0-2.263Z" transform="translate(-504.682 -315.642)" fill="#e6e6e6"/>
  <path id="Path_369" data-name="Path 369" d="M631.531,399.466a1.131,1.131,0,1,0,0,2.263h22.952a1.131,1.131,0,1,0,0-2.263Z" transform="translate(-504.682 -330.599)" fill="#e6e6e6"/>
  <path id="Path_370" data-name="Path 370" d="M342.684,384.947l.992,7.9a4.152,4.152,0,0,0,5.808,3.276h0a4.152,4.152,0,0,0,1.951-5.795l-4.172-7.586L345.9,350.128l-8.822,2.057Z" transform="translate(-302.929 -296.664)" fill="#ffb8b8"/>
  <path id="Path_371" data-name="Path 371" d="M162.689,367.378l-6.868.624L151.762,311.5l-.156,14.516-14.985,39.959-5.931-4.683,9.834-39.8-4.683-22.165h30.594Z" transform="translate(-89.891 -205.879)" fill="#2f2e41"/>
  <path id="Path_372" data-name="Path 372" d="M446.388,697.651l-12.767-.312a3.46,3.46,0,0,1-3.67-3.994l.523-3.287a2.813,2.813,0,0,1,2.578-2.364h0c2.179,2.255,4.433,1.922,6.747-.483l5.263,5.339.786-.106a2.618,2.618,0,0,1,2.864,1.866h0a2.618,2.618,0,0,1-2.323,3.34Z" transform="translate(-366.78 -528.516)" fill="#2f2e41"/>
  <path id="Path_373" data-name="Path 373" d="M356.061,687.05l-12.8-4.831a3.7,3.7,0,0,1-1.764-5.523l1.985-2.953a3.007,3.007,0,0,1,3.563-1.134h0c1.1,3.167,3.435,3.857,6.76,2.565l3.266,6.333.81.251a2.8,2.8,0,0,1,1.938,3.1h0a2.8,2.8,0,0,1-3.755,2.195Z" transform="translate(-305.534 -518.337)" fill="#2f2e41"/>
  <circle id="Ellipse_76" data-name="Ellipse 76" cx="8.117" cy="8.117" r="8.117" transform="translate(53.755 6.656)" fill="#ffb8b8"/>
  <path id="Path_374" data-name="Path 374" d="M397.931,243.927l-14.048-.312c3.86-4.271,6.2-8.726,6.556-13.424h7.492Z" transform="translate(-335.123 -214.169)" fill="#ffb8b8"/>
  <path id="Path_375" data-name="Path 375" d="M390.243,333.993c-13.261-3.4-25.7-5.7-33.4-1.561,1.349-14.177-.211-32.273-4.839-51.187-1.5-6.143-.484-11.679,4.995-14.84l7.336-4.214,11.239.312,5.864,3.244a14.723,14.723,0,0,1,7.884,15.914C386.167,298.241,387.869,316.134,390.243,333.993Z" transform="translate(-312.762 -236.179)" fill="#3f3d56"/>
  <path id="Path_376" data-name="Path 376" d="M458.058,387.282l1.1,7.884a4.152,4.152,0,0,1-4.753,4.676h0a4.152,4.152,0,0,1-3.393-5.086l2.051-8.411-7.18-31.843,9.053-.312Z" transform="translate(-377.767 -299.459)" fill="#ffb8b8"/>
  <path id="Path_377" data-name="Path 377" d="M346.555,308.1l-14.673-.937c1.146-14.434,4.409-22.325,9.365-24.975l5.307,6.244Z" transform="translate(-299.356 -249.936)" fill="#3f3d56"/>
  <path id="Path_378" data-name="Path 378" d="M411.685,198.3c-2.86-.915-4.344,4.949-8.585,8.585-.964.827-3.37-2.4-4.214-1.4l-1.366-4.157a8.8,8.8,0,0,1,6.377-11.393q.2-.043.408-.077h0a9.1,9.1,0,0,1,10.262,6.528,1.2,1.2,0,0,1-.914,1.484Z" transform="translate(-344.194 -186.34)" fill="#2f2e41"/>
  <path id="Path_379" data-name="Path 379" d="M225.55,134.677,211.814,137.8l-.624-22.477,7.8.312Z" transform="translate(-145.26 -79.32)" fill="#3f3d56"/>
  <rect id="Rectangle_332" data-name="Rectangle 332" width="230.459" height="0.624" transform="translate(0 168.66)" fill="#3f3d56"/>
  <path id="Path_380" data-name="Path 380" d="M693.821,255.717H603.829a1.668,1.668,0,0,1-1.667-1.666V214.557a1.668,1.668,0,0,1,1.667-1.667h89.992a1.668,1.668,0,0,1,1.667,1.667V254.05A1.668,1.668,0,0,1,693.821,255.717Z" transform="translate(-485.259 -202.27)" fill="#6c63ff"/>
  <path id="Path_381" data-name="Path 381" d="M663.714,256.985a1.131,1.131,0,0,0,0,2.263h53.338a1.131,1.131,0,0,0,0-2.263Z" transform="translate(-526.817 -232.599)" fill="#fff"/>
  <path id="Path_382" data-name="Path 382" d="M663.714,277.985a1.131,1.131,0,0,0,0,2.263h53.338a1.131,1.131,0,0,0,0-2.263Z" transform="translate(-526.817 -247.043)" fill="#fff"/>
  <path id="Path_383" data-name="Path 383" d="M663.714,298.731a1.131,1.131,0,0,0,0,2.263h22.952a1.131,1.131,0,0,0,0-2.263Z" transform="translate(-526.817 -261.312)" fill="#fff"/>
</svg>
