<svg id="Group_88" data-name="Group 88" xmlns="http://www.w3.org/2000/svg" width="653.479" height="519.892" viewBox="0 0 653.479 519.892">
  <circle id="Ellipse_65" data-name="Ellipse 65" cx="49.925" cy="49.925" r="49.925" transform="translate(329.209 419.659)" fill="#f2f2f2"/>
  <path id="Path_282" data-name="Path 282" d="M664.108,749.568a62.1,62.1,0,1,1,62.1-62.1,62.1,62.1,0,0,1-62.1,62.1Zm0-123.392a61.29,61.29,0,1,0,61.29,61.29,61.29,61.29,0,0,0-61.29-61.29Z" transform="translate(-273.86 -242.46)" fill="#f2f2f2"/>
  <rect id="Rectangle_314" data-name="Rectangle 314" width="312.101" height="177.427" transform="translate(290.051 67.617)" fill="#3f3d56"/>
  <path id="Path_283" data-name="Path 283" d="M910.749,341.365H546.494V133.574H910.749Zm-362.6-1.656H909.094V135.229H548.15Z" transform="translate(-257.271 -95.492)" fill="#3f3d56"/>
  <circle id="Ellipse_66" data-name="Ellipse 66" cx="38.909" cy="38.909" r="38.909" transform="translate(407.192 142.257)" fill="#6c63ff"/>
  <path id="Path_284" data-name="Path 284" d="M774.164,335.456c-3.153-3.616-6.13-9.45-7.874-14.152-1.743,4.7-4.72,10.536-7.873,14.152l7.045-2.549v15.716h1.656V332.907Z" transform="translate(-320.603 -151.594)" fill="#fff"/>
  <path id="Path_285" data-name="Path 285" d="M667.284,59.293H600.225V46.047h67.059L673.9,52.67Z" transform="translate(-179.373 -13.761)" fill="#d0cde1"/>
  <path id="Path_286" data-name="Path 286" d="M572.828,59.293H505.769V46.047h67.059l6.62,6.623Z" transform="translate(-151.145 -13.761)" fill="#3f3d56"/>
  <path id="Path_287" data-name="Path 287" d="M479.553,59.293H412.494V46.047h67.059l6.62,6.623Z" transform="translate(-123.271 -13.761)" fill="#6c63ff"/>
  <path id="Path_288" data-name="Path 288" d="M203.427,792.664l-.888-.333c-.2-.074-19.627-7.519-28.73-24.4s-4.646-37.208-4.6-37.411l.21-.926.888.333c.2.074,19.627,7.519,28.73,24.4s4.646,37.208,4.6,37.411Zm-28.161-25.519c7.7,14.273,23.052,21.59,26.942,23.26.74-4.17,3.06-21.033-4.63-35.292s-23.05-21.586-26.942-23.26C169.9,736.026,167.578,752.887,175.266,767.146Z" transform="translate(-144.184 -273.609)" fill="#3f3d56"/>
  <path id="Path_289" data-name="Path 289" d="M170.581,772.889c16.359,9.842,22.659,29.391,22.659,29.391s-20.223,3.592-36.581-6.25S134,766.639,134,766.639,154.223,763.047,170.581,772.889Z" transform="translate(-134 -284.488)" fill="#6c63ff"/>
  <path id="Path_290" data-name="Path 290" d="M469.541,414.752s28.471,14.763,17.926,28.471S459,427.406,459,425.3,469.541,414.752,469.541,414.752Z" transform="translate(-231.123 -179.52)" fill="#a0616a"/>
  <path id="Path_291" data-name="Path 291" d="M428.517,360.61s18.981,23.2,24.253,26.362,9.49,6.327,9.49,7.382,4.218,6.327,4.218,6.327l-16.872,14.763s-18.981-25.308-21.09-25.308S428.517,360.61,428.517,360.61Z" transform="translate(-221.734 -163.34)" fill="#575a89"/>
  <path id="Path_292" data-name="Path 292" d="M154.169,666.962l-12.654,21.09,18.981,8.436,17.926-5.273-10.545-26.362Z" transform="translate(-42.291 -198.687)" fill="#a0616a"/>
  <path id="Path_293" data-name="Path 293" d="M326.718,403.982,316.173,504.16s-23.2,47.452-23.2,85.414-8.436,48.507-8.436,48.507L310.9,642.3l28.471-92.8,47.452-86.469-13.709-86.469-23.2-8.436Z" transform="translate(-178.987 -165.588)" fill="#2f2e41"/>
  <path id="Path_294" data-name="Path 294" d="M283.923,770.938s-7.909-11.072-7.909-7.909-15.29,38.489-2.636,38.489,46.4-2.109,52.725,0,27.417-2.109,25.308-14.763-27.417-11.6-27.417-11.6-15.253-21.261-19.226-13.794l-3.973,7.467Z" transform="translate(-174.154 -282.628)" fill="#2f2e41"/>
  <path id="Path_295" data-name="Path 295" d="M313.587,666.962l-12.654,21.09,18.98,8.436,17.926-5.273L327.3,664.853Z" transform="translate(-89.932 -198.687)" fill="#a0616a"/>
  <path id="Path_296" data-name="Path 296" d="M443.341,770.938s-7.909-10.018-7.909-6.854-15.29,37.435-2.636,37.435,46.4-2.109,52.725,0,27.417-2.109,25.308-14.763-27.417-11.6-27.417-11.6-15.253-21.261-19.226-13.794l-3.973,7.467Z" transform="translate(-221.795 -282.628)" fill="#2f2e41"/>
  <path id="Path_297" data-name="Path 297" d="M320.633,405.625s3.164,28.471,20.035,54.834,41.125,72.76,41.125,72.76-2.109,46.4,9.49,72.76,13.708,40.071,13.708,40.071l28.471-7.382s-15.818-88.578-9.49-108.613S399.72,405.625,399.72,405.625l-28.471-24.253-36.907-4.218Z" transform="translate(-189.774 -168.284)" fill="#2f2e41"/>
  <circle id="Ellipse_67" data-name="Ellipse 67" cx="24.253" cy="24.253" r="24.253" transform="translate(167.38 15.43)" fill="#a0616a"/>
  <path id="Path_298" data-name="Path 298" d="M373.638,137.6l-12.693,27.154,35.636,24.684s-4.195-29.4,3.708-36.842S373.638,137.6,373.638,137.6Z" transform="translate(-201.821 -96.695)" fill="#a0616a"/>
  <path id="Path_299" data-name="Path 299" d="M383.589,199.9s-16.872-34.8-30.58-34.8-49.561,24.253-48.507,29.526a36.321,36.321,0,0,1,1.054,9.491c0,3.163-7.381,3.163-1.054,5.272s7.382,4.218,7.382,4.218L306.61,348.58s23.2,8.436,31.635,5.273S355.117,329.6,355.117,329.6s-2.109,28.471,6.327,27.417,40.071-3.163,41.125-7.382-6.327-97.014-6.327-97.014Z" transform="translate(-184.187 -104.913)" fill="#575a89"/>
  <path id="Path_300" data-name="Path 300" d="M306.753,437.311s-12.654,46.4,5.272,42.18,12.654-41.125,12.654-41.125Z" transform="translate(-184.33 -186.262)" fill="#a0616a"/>
  <path id="Path_301" data-name="Path 301" d="M326.351,202.376l-30.58,78.033s-4.218,8.436,0,14.763-2.109,44.289,2.109,52.725,4.218,23.2,4.218,23.2l24.253,2.109,5.273-92.8,27.417-59.052S356.932,197.1,326.351,202.376Z" transform="translate(-181.784 -115.829)" fill="#575a89"/>
  <path id="Path_302" data-name="Path 302" d="M340.677,198.936s-18.981,5.272-25.308,24.253Z" transform="translate(-188.201 -115.025)" opacity="0.1"/>
  <path id="Path_303" data-name="Path 303" d="M376.874,130.01c2.36-.141,4.664.657,7.007.968,8.384,1.113,17.105-4.971,18.956-13.223a10.146,10.146,0,0,1,.97-3.159c1.29-2.107,4.229-2.508,6.651-2.024s4.719,1.618,7.186,1.748c3.809.2,7.466-2.145,9.5-5.374a18.225,18.225,0,0,0,2.331-11.007l-1.826,1.917a9.275,9.275,0,0,1-.827-5.041,5.849,5.849,0,0,0-5.541,1.418c-1.61.171-.395-2.987-1.591-4.078a2.767,2.767,0,0,0-1.947-.364c-3.425.033-6.2-2.587-8.9-4.7a37.8,37.8,0,0,0-15.965-7.282c-3.868-.754-7.981-.876-11.649.565a24.884,24.884,0,0,0-7.867,5.58c-5.743,5.522-10.828,12.011-13.217,19.611a33.013,33.013,0,0,0-.158,19.143c.963,3.249,3.864,14.377,8.112,14.636C373.435,139.672,370.23,130.406,376.874,130.01Z" transform="translate(-201.134 -79.262)" fill="#2f2e41"/>
  <path id="Path_304" data-name="Path 304" d="M239.129,183.008l-24.836,36.425-7.943,84.609Z" transform="translate(-61.667 -54.691)" opacity="0.1"/>
  <rect id="Rectangle_315" data-name="Rectangle 315" width="389.919" height="1.656" transform="translate(0.302 518.236)" fill="#3f3d56"/>
  <path id="Path_305" data-name="Path 305" d="M518.123,461.717,460.3,424.6c20.891-18.434,35.61-39.142,40.7-63.4l57.823,37.119a150.406,150.406,0,0,0-40.7,63.4Z" transform="translate(-231.512 -163.517)" fill="#6c63ff"/>
  <rect id="Rectangle_316" data-name="Rectangle 316" width="35.598" height="1.656" transform="translate(276.037 218.124) rotate(32.698)" fill="#3f3d56"/>
  <rect id="Rectangle_317" data-name="Rectangle 317" width="35.598" height="1.656" transform="translate(272.459 223.697) rotate(32.698)" fill="#3f3d56"/>
  <rect id="Rectangle_318" data-name="Rectangle 318" width="35.598" height="1.656" transform="translate(268.882 229.27) rotate(32.698)" fill="#3f3d56"/>
  <rect id="Rectangle_319" data-name="Rectangle 319" width="35.598" height="1.656" transform="translate(265.304 234.844) rotate(32.698)" fill="#3f3d56"/>
  <rect id="Rectangle_320" data-name="Rectangle 320" width="35.598" height="1.656" transform="translate(261.726 240.417) rotate(32.698)" fill="#3f3d56"/>
  <rect id="Rectangle_321" data-name="Rectangle 321" width="35.598" height="1.656" transform="translate(258.149 245.99) rotate(32.698)" fill="#3f3d56"/>
  <rect id="Rectangle_322" data-name="Rectangle 322" width="35.598" height="1.656" transform="translate(254.571 251.564) rotate(32.698)" fill="#3f3d56"/>
  <rect id="Rectangle_323" data-name="Rectangle 323" width="35.598" height="1.656" transform="translate(250.993 257.137) rotate(32.698)" fill="#3f3d56"/>
  <path id="Path_306" data-name="Path 306" d="M530.147,451.647l-67.7-11.771c12.1-25.1,17.63-49.893,12.905-74.221l67.7,11.771a150.408,150.408,0,0,0-12.905,74.221Z" transform="translate(-232.155 -164.848)" fill="#f2f2f2"/>
  <rect id="Rectangle_324" data-name="Rectangle 324" width="35.598" height="1.656" transform="translate(257.173 217.103) rotate(9.864)" fill="#3f3d56"/>
  <rect id="Rectangle_325" data-name="Rectangle 325" width="35.598" height="1.656" transform="translate(256.039 223.628) rotate(9.864)" fill="#3f3d56"/>
  <rect id="Rectangle_326" data-name="Rectangle 326" width="35.598" height="1.656" transform="translate(254.904 230.153) rotate(9.864)" fill="#3f3d56"/>
  <rect id="Rectangle_327" data-name="Rectangle 327" width="35.598" height="1.656" transform="translate(253.77 236.677) rotate(9.864)" fill="#3f3d56"/>
  <rect id="Rectangle_328" data-name="Rectangle 328" width="35.598" height="1.656" transform="translate(252.635 243.202) rotate(9.864)" fill="#3f3d56"/>
  <rect id="Rectangle_329" data-name="Rectangle 329" width="35.598" height="1.656" transform="translate(251.5 249.727) rotate(9.864)" fill="#3f3d56"/>
  <rect id="Rectangle_330" data-name="Rectangle 330" width="35.598" height="1.656" transform="translate(250.366 256.252) rotate(9.864)" fill="#3f3d56"/>
  <rect id="Rectangle_331" data-name="Rectangle 331" width="35.598" height="1.656" transform="translate(249.231 262.777) rotate(9.864)" fill="#3f3d56"/>
</svg>
