<svg xmlns="http://www.w3.org/2000/svg" width="248.792" height="202.237" viewBox="0 0 248.792 202.237">
  <g id="Group_71" data-name="Group 71" transform="translate(0 0.79)">
    <ellipse id="Ellipse_29" data-name="Ellipse 29" cx="44.999" cy="10.132" rx="44.999" ry="10.132" transform="translate(154.122 181.182)" fill="#6c63ff"/>
    <ellipse id="Ellipse_30" data-name="Ellipse 30" cx="44.999" cy="10.132" rx="44.999" ry="10.132" transform="translate(158.294 178.202)" fill="none" stroke="#3f3d56" stroke-miterlimit="10" stroke-width="1"/>
    <circle id="Ellipse_31" data-name="Ellipse 31" cx="8.94" cy="8.94" r="8.94" transform="translate(121.49 81.202)" fill="#6c63ff"/>
    <circle id="Ellipse_32" data-name="Ellipse 32" cx="8.94" cy="8.94" r="8.94" transform="translate(157.549 81.202)" fill="#6c63ff"/>
    <circle id="Ellipse_33" data-name="Ellipse 33" cx="8.94" cy="8.94" r="8.94" transform="translate(193.608 81.202)" fill="#6c63ff"/>
    <circle id="Ellipse_34" data-name="Ellipse 34" cx="0.894" cy="0.894" r="0.894" transform="translate(3.182 4.614)" fill="#f86b75"/>
    <circle id="Ellipse_35" data-name="Ellipse 35" cx="0.894" cy="0.894" r="0.894" transform="translate(5.864 4.614)" fill="#fad375"/>
    <circle id="Ellipse_36" data-name="Ellipse 36" cx="0.894" cy="0.894" r="0.894" transform="translate(8.546 4.614)" fill="#8bcc55"/>
    <rect id="Rectangle_80" data-name="Rectangle 80" width="61.389" height="19.072" transform="translate(20.317 19.365)" fill="#6c63ff"/>
    <rect id="Rectangle_81" data-name="Rectangle 81" width="108.474" height="64.369" transform="translate(0.5 2.528)" fill="none" stroke="#3f3d56" stroke-miterlimit="10" stroke-width="1"/>
    <line id="Line_1" data-name="Line 1" x2="108.474" transform="translate(0.5 7.403)" fill="none" stroke="#3f3d56" stroke-miterlimit="10" stroke-width="1"/>
    <circle id="Ellipse_37" data-name="Ellipse 37" cx="0.894" cy="0.894" r="0.894" transform="translate(3.48 4.018)" fill="none" stroke="#3f3d56" stroke-miterlimit="10" stroke-width="1"/>
    <circle id="Ellipse_38" data-name="Ellipse 38" cx="0.894" cy="0.894" r="0.894" transform="translate(6.162 4.018)" fill="none" stroke="#3f3d56" stroke-miterlimit="10" stroke-width="1"/>
    <circle id="Ellipse_39" data-name="Ellipse 39" cx="0.894" cy="0.894" r="0.894" transform="translate(8.844 4.018)" fill="none" stroke="#3f3d56" stroke-miterlimit="10" stroke-width="1"/>
    <rect id="Rectangle_82" data-name="Rectangle 82" width="61.389" height="19.072" transform="translate(24.042 15.64)" fill="none" stroke="#3f3d56" stroke-miterlimit="10" stroke-width="1"/>
    <rect id="Rectangle_83" data-name="Rectangle 83" width="82.25" height="2.466" transform="translate(12.569 46.782)" fill="#f2f2f2"/>
    <rect id="Rectangle_84" data-name="Rectangle 84" width="82.25" height="2.466" transform="translate(12.569 52.701)" fill="#f2f2f2"/>
    <rect id="Rectangle_85" data-name="Rectangle 85" width="82.25" height="2.466" transform="translate(12.569 58.62)" fill="#f2f2f2"/>
    <rect id="Rectangle_86" data-name="Rectangle 86" width="82.25" height="2.466" transform="translate(13.463 45.59)" fill="none" stroke="#3f3d56" stroke-miterlimit="10" stroke-width="1"/>
    <rect id="Rectangle_87" data-name="Rectangle 87" width="82.25" height="2.466" transform="translate(13.463 51.509)" fill="none" stroke="#3f3d56" stroke-miterlimit="10" stroke-width="1"/>
    <rect id="Rectangle_88" data-name="Rectangle 88" width="82.25" height="2.466" transform="translate(13.463 57.428)" fill="none" stroke="#3f3d56" stroke-miterlimit="10" stroke-width="1"/>
    <circle id="Ellipse_40" data-name="Ellipse 40" cx="0.894" cy="0.894" r="0.894" transform="translate(28.215 116.068)" fill="#f86b75"/>
    <circle id="Ellipse_41" data-name="Ellipse 41" cx="0.894" cy="0.894" r="0.894" transform="translate(30.897 116.068)" fill="#fad375"/>
    <circle id="Ellipse_42" data-name="Ellipse 42" cx="0.894" cy="0.894" r="0.894" transform="translate(33.579 116.068)" fill="#8bcc55"/>
    <rect id="Rectangle_89" data-name="Rectangle 89" width="61.389" height="19.072" transform="translate(45.35 130.819)" fill="#6c63ff"/>
    <path id="Path_77" data-name="Path 77" d="M192.974,397.457v51.257H84.5V384.345h88.21" transform="translate(-58.968 -270.363)" fill="none" stroke="#3f3d56" stroke-miterlimit="10" stroke-width="1"/>
    <line id="Line_2" data-name="Line 2" x2="88.359" transform="translate(25.532 118.857)" fill="none" stroke="#3f3d56" stroke-miterlimit="10" stroke-width="1"/>
    <circle id="Ellipse_43" data-name="Ellipse 43" cx="0.894" cy="0.894" r="0.894" transform="translate(28.513 115.472)" fill="none" stroke="#3f3d56" stroke-miterlimit="10" stroke-width="1"/>
    <circle id="Ellipse_44" data-name="Ellipse 44" cx="0.894" cy="0.894" r="0.894" transform="translate(31.195 115.472)" fill="none" stroke="#3f3d56" stroke-miterlimit="10" stroke-width="1"/>
    <circle id="Ellipse_45" data-name="Ellipse 45" cx="0.894" cy="0.894" r="0.894" transform="translate(33.877 115.472)" fill="none" stroke="#3f3d56" stroke-miterlimit="10" stroke-width="1"/>
    <rect id="Rectangle_90" data-name="Rectangle 90" width="61.389" height="19.072" transform="translate(49.075 127.094)" fill="none" stroke="#3f3d56" stroke-miterlimit="10" stroke-width="1"/>
    <circle id="Ellipse_46" data-name="Ellipse 46" cx="0.894" cy="0.894" r="0.894" transform="translate(116.424 64.513)" fill="#f86b75"/>
    <circle id="Ellipse_47" data-name="Ellipse 47" cx="0.894" cy="0.894" r="0.894" transform="translate(119.106 64.513)" fill="#fad375"/>
    <circle id="Ellipse_48" data-name="Ellipse 48" cx="0.894" cy="0.894" r="0.894" transform="translate(121.788 64.513)" fill="#8bcc55"/>
    <rect id="Rectangle_91" data-name="Rectangle 91" width="108.474" height="64.369" transform="translate(113.742 62.427)" fill="none" stroke="#3f3d56" stroke-miterlimit="10" stroke-width="1"/>
    <line id="Line_3" data-name="Line 3" x2="108.474" transform="translate(113.742 67.302)" fill="none" stroke="#3f3d56" stroke-miterlimit="10" stroke-width="1"/>
    <circle id="Ellipse_49" data-name="Ellipse 49" cx="0.894" cy="0.894" r="0.894" transform="translate(116.722 63.917)" fill="none" stroke="#3f3d56" stroke-miterlimit="10" stroke-width="1"/>
    <circle id="Ellipse_50" data-name="Ellipse 50" cx="0.894" cy="0.894" r="0.894" transform="translate(119.404 63.917)" fill="none" stroke="#3f3d56" stroke-miterlimit="10" stroke-width="1"/>
    <circle id="Ellipse_51" data-name="Ellipse 51" cx="0.894" cy="0.894" r="0.894" transform="translate(122.086 63.917)" fill="none" stroke="#3f3d56" stroke-miterlimit="10" stroke-width="1"/>
    <circle id="Ellipse_52" data-name="Ellipse 52" cx="8.94" cy="8.94" r="8.94" transform="translate(122.98 79.711)" fill="none" stroke="#3f3d56" stroke-miterlimit="10" stroke-width="1"/>
    <circle id="Ellipse_53" data-name="Ellipse 53" cx="8.94" cy="8.94" r="8.94" transform="translate(159.039 79.711)" fill="none" stroke="#3f3d56" stroke-miterlimit="10" stroke-width="1"/>
    <circle id="Ellipse_54" data-name="Ellipse 54" cx="8.94" cy="8.94" r="8.94" transform="translate(195.098 79.711)" fill="none" stroke="#3f3d56" stroke-miterlimit="10" stroke-width="1"/>
    <rect id="Rectangle_92" data-name="Rectangle 92" width="24.436" height="2.384" transform="translate(118.361 105.191)" fill="#f2f2f2"/>
    <rect id="Rectangle_93" data-name="Rectangle 93" width="24.436" height="2.384" transform="translate(154.718 105.191)" fill="#f2f2f2"/>
    <rect id="Rectangle_94" data-name="Rectangle 94" width="24.436" height="2.384" transform="translate(191.075 105.191)" fill="#f2f2f2"/>
    <rect id="Rectangle_95" data-name="Rectangle 95" width="24.436" height="2.384" transform="translate(119.553 104.297)" fill="none" stroke="#3f3d56" stroke-miterlimit="10" stroke-width="1"/>
    <rect id="Rectangle_96" data-name="Rectangle 96" width="24.436" height="2.384" transform="translate(155.91 104.297)" fill="none" stroke="#3f3d56" stroke-miterlimit="10" stroke-width="1"/>
    <rect id="Rectangle_97" data-name="Rectangle 97" width="24.436" height="2.384" transform="translate(192.267 104.297)" fill="none" stroke="#3f3d56" stroke-miterlimit="10" stroke-width="1"/>
    <rect id="Rectangle_98" data-name="Rectangle 98" width="18.774" height="16.092" transform="translate(29.556 157.342)" fill="#f2f2f2"/>
    <rect id="Rectangle_99" data-name="Rectangle 99" width="18.774" height="16.092" transform="translate(64.273 157.491)" fill="#f2f2f2"/>
    <rect id="Rectangle_100" data-name="Rectangle 100" width="18.774" height="16.092" transform="translate(98.991 157.64)" fill="#f2f2f2"/>
    <rect id="Rectangle_101" data-name="Rectangle 101" width="18.774" height="16.092" transform="translate(32.238 154.362)" fill="none" stroke="#3f3d56" stroke-miterlimit="10" stroke-width="1"/>
    <rect id="Rectangle_102" data-name="Rectangle 102" width="18.774" height="16.092" transform="translate(66.955 154.511)" fill="none" stroke="#3f3d56" stroke-miterlimit="10" stroke-width="1"/>
    <rect id="Rectangle_103" data-name="Rectangle 103" width="18.774" height="16.092" transform="translate(101.673 154.66)" fill="none" stroke="#3f3d56" stroke-miterlimit="10" stroke-width="1"/>
    <path id="Path_78" data-name="Path 78" d="M581.088,204.492l-8.362,4.633,8.918-3.146Z" transform="translate(-401.699 -144.107)" fill="#79758c"/>
    <ellipse id="Ellipse_55" data-name="Ellipse 55" cx="2.333" cy="4.7" rx="2.333" ry="4.7" transform="translate(178.035 56.724) rotate(-17.994)" fill="#3f3d56"/>
    <ellipse id="Ellipse_56" data-name="Ellipse 56" cx="1.76" cy="3.319" rx="1.76" ry="3.319" transform="translate(186.279 54.277) rotate(-17.994)" fill="#3f3d56"/>
    <path id="Path_79" data-name="Path 79" d="M610.365,190.964l5.547-2,1.179,3.266-5.368,3.626Z" transform="translate(-428.122 -133.204)" fill="#3f3d56"/>
    <path id="Path_80" data-name="Path 80" d="M783.911,320.546l1.49-3.278s3.576-9.536.3-7.748-4.47,6.556-4.47,6.556l-.894,2.98Z" transform="translate(-602.198 -250.781)" fill="#a0616a"/>
    <path id="Path_81" data-name="Path 81" d="M910.381,510.184s-5.066,9.834-6.556,10.132-1.49-8.94-1.49-8.94,2.98-2.682,4.172-2.384S910.381,510.184,910.381,510.184Z" transform="translate(-687.841 -390.95)" fill="#a0616a"/>
    <path id="Path_82" data-name="Path 82" d="M886.61,721.046a3.792,3.792,0,0,1,1.49,4.768c-1.192,3.278-1.788,2.384-2.384,5.066s-5.96,2.384-6.258,1.192-.894-5.96.6-7.748S886.61,721.046,886.61,721.046Z" transform="translate(-671.52 -539.827)" fill="#55536e"/>
    <path id="Path_83" data-name="Path 83" d="M811.106,721.046a3.792,3.792,0,0,0-1.49,4.768c1.192,3.278,1.788,2.384,2.384,5.066s5.96,2.384,6.258,1.192.894-5.96-.6-7.748S811.106,721.046,811.106,721.046Z" transform="translate(-622.539 -539.827)" fill="#55536e"/>
    <path id="Path_84" data-name="Path 84" d="M836.071,505.923s2.384,1.49,2.98,10.728a142.49,142.49,0,0,1-.6,22.052,21.336,21.336,0,0,0,.894,7.748c.6,1.788-1.49,15.5-1.49,15.5a6.983,6.983,0,0,1,0,5.96c-1.49,3.278-5.96,6.556-7.152,3.278a8.084,8.084,0,0,0-.894-3.278c-.894-1.788.6-8.94.6-8.94s-1.192-11.324-.894-14.3-3.576-20.562-4.172-23.542-.3-5.364-.6-4.47-5.662,25.629-5.662,25.629.6,15.794.3,17.88,1.192,6.258.3,7.748-2.682,6.854-5.96,3.576-2.682-4.47-2.98-5.96,0-3.278,0-5.662-2.384-15.794-1.192-17.88.6-4.768.3-9.536-.6-27.714,2.384-31.887S836.071,505.923,836.071,505.923Z" transform="translate(-622.472 -384.304)" fill="#3f3d56"/>
    <circle id="Ellipse_57" data-name="Ellipse 57" cx="7.152" cy="7.152" r="7.152" transform="translate(199.146 51.438)" fill="#a0616a"/>
    <path id="Path_85" data-name="Path 85" d="M862.957,313.84s-.3,10.728,1.192,12.516-12.814-1.49-12.814-1.49,3.278-6.854,1.192-11.324S862.957,313.84,862.957,313.84Z" transform="translate(-652.04 -252.419)" fill="#a0616a"/>
    <path id="Path_86" data-name="Path 86" d="M836.155,348.405s-.6-2.384-4.172-2.98-7.805-1.192-9.118,0-1.909,2.682-2.8,2.682h-4.172l-6.556,11.622s3.278,3.874,2.384,11.026-2.384,20.264-2.384,20.264a65.559,65.559,0,0,1,6.258,10.132c2.98,5.96,23.542,5.364,22.35-5.066,0,0-1.49-2.682-.894-5.066s2.384-18.476,2.384-18.476l6.854-18.178S836.751,349.6,836.155,348.405Z" transform="translate(-622.556 -275.66)" fill="#55536e"/>
    <path id="Path_87" data-name="Path 87" d="M913,376.046h2.086s1.192,6.854.894,11.026-.3,14.006-.3,14.006a8.984,8.984,0,0,1,.894,4.47c-.3,2.086-.894,7.748-.894,7.748s-.3,8.046-5.96,3.874c0,0-1.788-.894-.894-4.768a16.411,16.411,0,0,0-.6-8.046,11.806,11.806,0,0,0,.6-4.47c-.3-1.788-1.49-7.45-1.49-7.45Z" transform="translate(-691.351 -297.639)" fill="#55536e"/>
    <path id="Path_88" data-name="Path 88" d="M789.556,343.975l-1.49-.894a7.953,7.953,0,0,0-5.066,0,9.421,9.421,0,0,1-5.662.3c-1.192-.3-.3-3.278-.3-3.278s-2.384-4.172-4.768-1.788-2.384,7.152-2.384,7.152-1.49,2.98,3.874,4.768,7.748,4.47,7.748,4.47h5.96Z" transform="translate(-594.731 -270.634)" fill="#55536e"/>
    <path id="Path_89" data-name="Path 89" d="M854.117,291.408a1.382,1.382,0,0,0-.857-1.231,3.9,3.9,0,0,0-1.018-.2,3.915,3.915,0,0,1-2.65-1.278c-.787-1.032-.572-2.476-1.2-3.6a12.471,12.471,0,0,0-.962-1.264,9.226,9.226,0,0,1-1.4-5.144,2.21,2.21,0,0,1,.121-1.075,4.127,4.127,0,0,1,.68-.839,2.787,2.787,0,0,0,.674-1.86c-.032-1.386,1.951-2.317,3.355-2.8a14.31,14.31,0,0,1,4.424-.575,6.633,6.633,0,0,1,2.539.313,5.846,5.846,0,0,1,1.273.758,9.434,9.434,0,0,1,3.769,4.591,9.931,9.931,0,0,1,.3,2.637,1.725,1.725,0,0,1-.118.812c-.2.4-.668.616-.971.955a3.856,3.856,0,0,0-.537,2.369,5.427,5.427,0,0,1-2.665,4.1,3.4,3.4,0,0,0-.834.576,3.657,3.657,0,0,0-.46.8A4.177,4.177,0,0,1,854.117,291.408Z" transform="translate(-648.303 -224.28)" fill="#3f3d56"/>
    <path id="Path_90" data-name="Path 90" d="M183.247,10.671l-3.969,2.2,4.233-1.493Z" transform="translate(-125.501 -8.046)" fill="#79758c"/>
    <ellipse id="Ellipse_58" data-name="Ellipse 58" cx="1.107" cy="2.231" rx="1.107" ry="2.231" transform="translate(57.104 0.887) rotate(-17.994)" fill="#3f3d56"/>
    <ellipse id="Ellipse_59" data-name="Ellipse 59" cx="0.835" cy="1.575" rx="0.835" ry="1.575" transform="translate(61.017 -0.274) rotate(-17.994)" fill="#3f3d56"/>
    <path id="Path_91" data-name="Path 91" d="M197.145,4.249l2.633-.95.56,1.55L197.789,6.57Z" transform="translate(-138.044 -2.871)" fill="#3f3d56"/>
    <path id="Path_92" data-name="Path 92" d="M273.247,382.671l-3.969,2.2,4.233-1.493Z" transform="translate(-188.681 -269.188)" fill="#79758c"/>
    <ellipse id="Ellipse_60" data-name="Ellipse 60" cx="1.107" cy="2.231" rx="1.107" ry="2.231" transform="translate(83.924 111.746) rotate(-17.994)" fill="#3f3d56"/>
    <ellipse id="Ellipse_61" data-name="Ellipse 61" cx="0.835" cy="1.575" rx="0.835" ry="1.575" transform="translate(87.838 110.584) rotate(-17.994)" fill="#3f3d56"/>
    <path id="Path_93" data-name="Path 93" d="M287.145,376.249l2.633-.95.56,1.55-2.548,1.721Z" transform="translate(-201.223 -264.013)" fill="#3f3d56"/>
  </g>
</svg>
