<svg id="Group_70" data-name="Group 70" xmlns="http://www.w3.org/2000/svg" width="321.756" height="185.182" viewBox="0 0 321.756 185.182">
  <ellipse id="Ellipse_11" data-name="Ellipse 11" cx="160.878" cy="9.253" rx="160.878" ry="9.253" transform="translate(0 166.677)" fill="#f2f2f2"/>
  <rect id="Rectangle_47" data-name="Rectangle 47" width="241.684" height="7.689" transform="translate(51.237)" fill="#f2f2f2"/>
  <circle id="Ellipse_12" data-name="Ellipse 12" cx="1.99" cy="1.99" r="1.99" transform="translate(55.715 1.741)" fill="#6c63ff"/>
  <circle id="Ellipse_13" data-name="Ellipse 13" cx="1.99" cy="1.99" r="1.99" transform="translate(62.182 1.741)" fill="#6c63ff"/>
  <circle id="Ellipse_14" data-name="Ellipse 14" cx="1.99" cy="1.99" r="1.99" transform="translate(68.649 1.741)" fill="#6c63ff"/>
  <path id="Path_61" data-name="Path 61" d="M175.138,320.872l-.171.147v51.869H416.651V281.779l-2.88.218Z" transform="translate(-123.73 -199.263)" fill="#3f3d56"/>
  <rect id="Rectangle_48" data-name="Rectangle 48" width="67.49" height="2.721" transform="translate(68.679 51.434)" fill="#3f3d56"/>
  <rect id="Rectangle_49" data-name="Rectangle 49" width="67.49" height="2.721" transform="translate(68.679 57.421)" fill="#3f3d56"/>
  <rect id="Rectangle_50" data-name="Rectangle 50" width="22.86" height="2.721" transform="translate(68.679 63.408)" fill="#3f3d56"/>
  <rect id="Rectangle_51" data-name="Rectangle 51" width="67.49" height="2.721" transform="translate(206.313 126.987)" fill="#fff"/>
  <rect id="Rectangle_52" data-name="Rectangle 52" width="67.49" height="2.721" transform="translate(206.313 132.974)" fill="#fff"/>
  <rect id="Rectangle_53" data-name="Rectangle 53" width="22.86" height="2.721" transform="translate(206.313 138.961)" fill="#fff"/>
  <circle id="Ellipse_15" data-name="Ellipse 15" cx="2.655" cy="2.655" r="2.655" transform="translate(161.726 165.806)" fill="#f2f2f2"/>
  <circle id="Ellipse_16" data-name="Ellipse 16" cx="2.655" cy="2.655" r="2.655" transform="translate(169.425 166.071)" fill="#f2f2f2"/>
  <circle id="Ellipse_17" data-name="Ellipse 17" cx="2.655" cy="2.655" r="2.655" transform="translate(177.124 166.337)" fill="#f2f2f2"/>
  <circle id="Ellipse_18" data-name="Ellipse 18" cx="2.124" cy="2.124" r="2.124" transform="translate(169.98 166.602)" fill="#3f3d56"/>
  <rect id="Rectangle_54" data-name="Rectangle 54" width="22.86" height="5.215" transform="translate(90.935 82.584)" fill="#3f3d56"/>
  <rect id="Rectangle_55" data-name="Rectangle 55" width="22.86" height="5.215" transform="translate(226.812 153.158)" fill="#fff"/>
  <circle id="Ellipse_19" data-name="Ellipse 19" cx="15.813" cy="15.813" r="15.813" transform="translate(86.68 69.407)" fill="#6c63ff" opacity="0.3"/>
  <circle id="Ellipse_20" data-name="Ellipse 20" cx="10.542" cy="10.542" r="10.542" transform="translate(91.951 74.678)" fill="#6c63ff" opacity="0.3"/>
  <circle id="Ellipse_21" data-name="Ellipse 21" cx="7.321" cy="7.321" r="7.321" transform="translate(95.172 77.899)" fill="#6c63ff"/>
  <circle id="Ellipse_22" data-name="Ellipse 22" cx="15.813" cy="15.813" r="15.813" transform="translate(219.738 30.217)" fill="#6c63ff" opacity="0.3"/>
  <circle id="Ellipse_23" data-name="Ellipse 23" cx="10.542" cy="10.542" r="10.542" transform="translate(225.009 35.488)" fill="#6c63ff" opacity="0.3"/>
  <circle id="Ellipse_24" data-name="Ellipse 24" cx="7.321" cy="7.321" r="7.321" transform="translate(228.231 38.709)" fill="#6c63ff"/>
  <circle id="Ellipse_25" data-name="Ellipse 25" cx="15.813" cy="15.813" r="15.813" transform="translate(222.557 139.981)" fill="#6c63ff" opacity="0.3"/>
  <circle id="Ellipse_26" data-name="Ellipse 26" cx="10.542" cy="10.542" r="10.542" transform="translate(227.828 145.252)" fill="#6c63ff" opacity="0.3"/>
  <circle id="Ellipse_27" data-name="Ellipse 27" cx="7.321" cy="7.321" r="7.321" transform="translate(231.049 148.473)" fill="#6c63ff"/>
  <rect id="Rectangle_56" data-name="Rectangle 56" width="6.513" height="8.374" transform="translate(32.841 32.277) rotate(-177.779)" fill="#6c63ff"/>
  <path id="Path_62" data-name="Path 62" d="M241.392,309.606s9.013-4.306,8.869-.587-9.085,6.166-9.085,6.166Z" transform="translate(-185.376 -256.642)" fill="#ffb9b9"/>
  <path id="Path_63" data-name="Path 63" d="M134.717,410.12s4.252,10.408,5.823,17.918,3.964,17.846.886,25.176-11.828,28.874-11.918,31.2.75,4.685-1.11,4.613-11.979-3.258-12.39-4.671,3.453-4.988,3.453-4.988L129,449.474,119.047,430l-7.179,29.054-1.406,36.262s-6.9-2.13-7.9-.306c0,0-3.092-4.31-3.485-6.188s1.46-37.656,1.46-37.656S94.2,410.411,99.313,410.61,124.457,398.548,134.717,410.12Z" transform="translate(-83.645 -325.688)" fill="#2f2e41"/>
  <path id="Path_64" data-name="Path 64" d="M168.907,677.5s4.717,10.426,5.164,10.909,3.521,5.258,1.2,5.168-7.813-2.631-11.853-6.512-9.366-10.606-8.883-11.053a27.441,27.441,0,0,1,3.791-1.715Z" transform="translate(-124.082 -516.025)" fill="#2f2e41"/>
  <path id="Path_65" data-name="Path 65" d="M117.861,702.968s.285,4.667,1.142,6.562.75,4.685-1.575,4.595-8.332-1.254-8.332-1.254-.357-2.807.126-3.254,2.541-5.489,1.665-6.919S117.861,702.968,117.861,702.968Z" transform="translate(-91.884 -535.702)" fill="#2f2e41"/>
  <path id="Path_66" data-name="Path 66" d="M109.955,187.821s-4.955,7.723-6.887,9.51,3.5,5.723,3.5,5.723l9.727,1.308s-.122-8.851.379-9.763S109.955,187.821,109.955,187.821Z" transform="translate(-87.417 -172.006)" fill="#ffb9b9"/>
  <path id="Path_67" data-name="Path 67" d="M110.727,217.191s-2,3.647-3.863,3.575-11.478-4.17-11.889-5.583-3.186,10.12-3.186,10.12l23.536,41.419,5.741-3.968-2.782-24.319L116,225.311Z" transform="translate(-79.734 -191.271)" fill="#6c63ff"/>
  <path id="Path_68" data-name="Path 68" d="M76.353,247.5a13.025,13.025,0,0,1,1.444,6.109c0,.093-.007.186-.015.279-.223,4.3-1.808,9.279-2.376,12.9-.413,2.6-.3,4.491,1.224,4.936,3.683,1.074-.537,1.842,13.712,6.584s16.736.649,16.772-.281-2.018-7.993-1.535-8.44,6.757,5.849,8.653,4.991.216-5.579.216-5.579-4.27-9.943-4.18-12.268-6.469-13.287-6.469-13.287l-4.461-29.04s-1.715-3.791-4.022-4.346a5.714,5.714,0,0,0-4.22.768l3.86,8.53,4.072,15.057-.681,5.561s-4.735-9.961-7.845-13.806S80.76,213.22,80.76,213.22s-1.548-5.223-.379-6.784-4.875-1.8-7.452,4.618c-1.366,3.4-3.583,8.475-4.972,13.2-1.238,4.184-1.822,8.1-.6,10.332C69.235,238,73.949,242.489,76.353,247.5Z" transform="translate(-61.981 -184.514)" fill="#575a89"/>
  <path id="Path_69" data-name="Path 69" d="M67.361,277.054c1.874,3.416,6.589,7.905,8.992,12.92.628-2.262,1.394-4.6,1.394-4.6S80.684,269.655,72,265.594a5.815,5.815,0,0,0-4.039,1.128C66.719,270.906,66.134,274.818,67.361,277.054Z" transform="translate(-61.981 -226.985)" opacity="0.1"/>
  <path id="Path_70" data-name="Path 70" d="M185.043,301.411l7.366,2.148,10.228.4,1.052,8.887-16.808,1.211S182.682,302.251,185.043,301.411Z" transform="translate(-145.171 -252.333)" fill="#575a89"/>
  <path id="Path_71" data-name="Path 71" d="M137.617,403.451s9.854,1.635,7.605,4.6-10.979-.152-10.979-.152Z" transform="translate(-109.756 -324.491)" fill="#ffb9b9"/>
  <path id="Path_72" data-name="Path 72" d="M98.843,370.725c-.223,4.3-1.808,9.279-2.377,12.9,3.139,2.971,6.125,5.592,7.25,5.635,2.324.09,6.062-.23,7.438.288s2.184-8.3,2.184-8.3a7.624,7.624,0,0,0-4.487-4.364A51.046,51.046,0,0,1,98.843,370.725Z" transform="translate(-83.042 -301.348)" opacity="0.1"/>
  <path id="Path_73" data-name="Path 73" d="M67.18,256.058s-7.867-1.236-7.442,11.817-.829,21.385,2.335,23.836,13.442,13.558,15.766,13.648,6.062-.231,7.438.288,2.184-8.3,2.184-8.3a7.624,7.624,0,0,0-4.487-4.364c-3.665-1.539-12.3-7-12.228-8.855s2.184-8.3,2.184-8.3S75.869,260.12,67.18,256.058Z" transform="translate(-57.058 -220.238)" fill="#575a89"/>
  <circle id="Ellipse_28" data-name="Ellipse 28" cx="10.235" cy="10.235" r="10.235" transform="translate(19.24 6.78)" fill="#ffb9b9"/>
  <path id="Path_74" data-name="Path 74" d="M129.941,136.831a1.976,1.976,0,0,0,.861.432.614.614,0,0,0,.712-.493,2.552,2.552,0,0,0,.977,1.252c.478.249,1.217.04,1.286-.494a2.257,2.257,0,0,0,.519,1.1.778.778,0,0,0,1.094.037,28.1,28.1,0,0,0-.146,3.482,4.434,4.434,0,0,1-1.253,3.156c-1.28,1.114-3.2.839-4.887.628a1.483,1.483,0,0,0-.766.042c-.63.269-.6,1.146-.61,1.831a5.087,5.087,0,0,1-4.455,4.831,2.55,2.55,0,0,1-1.9-.463c-.478-.405-.722-1.065-1.27-1.37-.891-.5-1.971.227-2.623,1.011s-1.293,1.748-2.3,1.892c-1.334.19-2.351-1.17-2.849-2.422a14.121,14.121,0,0,1,.281-10.973C115.4,134.232,124.918,133.272,129.941,136.831Z" transform="translate(-93.573 -134.486)" fill="#2f2e41"/>
  <path id="Path_75" data-name="Path 75" d="M1007.914,664.548c3.6,6.147,10.875,8.581,10.875,8.581s1.426-7.533-2.179-13.681-10.875-8.581-10.875-8.581S1004.309,658.4,1007.914,664.548Z" transform="translate(-725.846 -499.455)" fill="#f2f2f2"/>
  <path id="Path_76" data-name="Path 76" d="M988.373,684.9c6.234,3.453,8.846,10.661,8.846,10.661s-7.5,1.61-13.73-1.842-8.846-10.661-8.846-10.661S982.139,681.45,988.373,684.9Z" transform="translate(-704.055 -521.955)" fill="#6c63ff"/>
</svg>
